<svg xmlns="http://www.w3.org/2000/svg" width="100" height="100" viewBox="0 0 100 100">
<g>
<path d="M 21.00 59.08 C21.00,61.92 20.86,62.00 16.00,62.00 C11.11,62.00 11.00,61.93 11.00,59.00 C11.00,57.35 11.45,56.00 12.00,56.00 C12.57,56.00 13.00,53.00 13.00,49.00 C13.00,45.00 12.57,42.00 12.00,42.00 C11.45,42.00 11.00,40.65 11.00,39.00 L 11.00 36.00 L 26.68 36.00 L 27.87 39.96 C29.54,45.55 30.58,45.67 32.55,40.51 L 34.27 36.00 L 50.00 36.00 L 50.00 39.00 C50.00,40.65 49.55,42.00 49.00,42.00 C48.43,42.00 48.00,45.00 48.00,49.00 C48.00,53.00 48.43,56.00 49.00,56.00 C49.55,56.00 50.00,57.35 50.00,59.00 L 50.00 62.00 L 36.00 62.00 L 36.00 59.00 C36.00,57.35 36.45,56.00 37.00,56.00 C37.57,56.00 37.98,53.11 37.96,49.25 C37.92,42.71 37.88,42.59 36.57,45.60 C35.83,47.31 34.20,51.72 32.96,55.40 C31.05,61.06 30.37,62.05 28.61,61.80 C26.97,61.56 25.77,59.47 23.01,52.00 L 19.50 42.50 L 19.20 48.98 C19.01,52.90 19.31,55.60 19.95,55.82 C20.53,56.01 21.00,57.48 21.00,59.08 ZM 85.49 59.64 C83.53,61.43 81.91,61.78 75.57,61.78 L 68.00 61.78 L 68.00 57.89 C68.00,54.34 68.23,54.00 70.67,54.00 C72.14,54.00 74.15,54.73 75.13,55.62 C77.07,57.37 80.42,56.77 79.76,54.79 C79.54,54.13 77.37,52.54 74.93,51.27 C69.62,48.48 68.00,46.53 68.00,42.88 C68.00,38.22 71.75,36.22 80.49,36.22 L 88.00 36.22 L 88.00 39.61 C88.00,42.71 87.75,43.00 84.99,43.00 C83.33,43.00 81.09,42.45 80.01,41.78 C78.50,40.83 77.78,40.82 76.86,41.74 C75.94,42.66 76.73,43.38 80.33,44.93 C85.49,47.14 89.35,52.19 88.41,55.50 C88.09,56.60 86.78,58.46 85.49,59.64 ZM 63.83 58.50 C63.59,61.98 63.56,62.00 58.80,62.00 L 54.00 62.00 L 54.00 55.00 L 64.06 55.00 Z" fill="rgb(6,3,6)"/>
<path d="M 0.00 50.00 L 0.00 0.00 L 50.00 0.00 L 100.00 0.00 L 100.00 50.00 L 100.00 100.00 L 50.00 100.00 L 0.00 100.00 L 0.00 50.00 ZM 21.00 59.08 C21.00,57.48 20.53,56.01 19.95,55.82 C19.31,55.60 19.01,52.90 19.20,48.98 L 19.50 42.50 L 23.01 52.00 C25.77,59.47 26.97,61.56 28.61,61.80 C30.37,62.05 31.05,61.06 32.96,55.40 C34.20,51.72 35.83,47.31 36.57,45.60 C37.88,42.59 37.92,42.71 37.96,49.25 C37.98,53.11 37.57,56.00 37.00,56.00 C36.45,56.00 36.00,57.35 36.00,59.00 L 36.00 62.00 L 43.00 62.00 L 50.00 62.00 L 50.00 59.00 C50.00,57.35 49.55,56.00 49.00,56.00 C48.43,56.00 48.00,53.00 48.00,49.00 C48.00,45.00 48.43,42.00 49.00,42.00 C49.55,42.00 50.00,40.65 50.00,39.00 L 50.00 36.00 L 42.14 36.00 L 34.27 36.00 L 32.55 40.51 C30.58,45.67 29.54,45.55 27.87,39.96 L 26.68 36.00 L 18.84 36.00 L 11.00 36.00 L 11.00 39.00 C11.00,40.65 11.45,42.00 12.00,42.00 C12.57,42.00 13.00,45.00 13.00,49.00 C13.00,53.00 12.57,56.00 12.00,56.00 C11.45,56.00 11.00,57.35 11.00,59.00 C11.00,61.93 11.11,62.00 16.00,62.00 C20.86,62.00 21.00,61.92 21.00,59.08 ZM 63.83 58.50 L 64.06 55.00 L 59.03 55.00 L 54.00 55.00 L 54.00 58.50 L 54.00 62.00 L 58.80 62.00 C63.56,62.00 63.59,61.98 63.83,58.50 ZM 85.49 59.64 C86.78,58.46 88.09,56.60 88.41,55.50 C89.35,52.19 85.49,47.14 80.33,44.93 C76.73,43.38 75.94,42.66 76.86,41.74 C77.78,40.82 78.50,40.83 80.01,41.78 C81.09,42.45 83.33,43.00 84.99,43.00 C87.75,43.00 88.00,42.71 88.00,39.61 L 88.00 36.22 L 80.49 36.22 C71.75,36.22 68.00,38.22 68.00,42.88 C68.00,46.53 69.62,48.48 74.93,51.27 C77.37,52.54 79.54,54.13 79.76,54.79 C80.42,56.77 77.07,57.37 75.13,55.62 C74.15,54.73 72.14,54.00 70.67,54.00 C68.23,54.00 68.00,54.34 68.00,57.89 L 68.00 61.78 L 75.57 61.78 C81.91,61.78 83.53,61.43 85.49,59.64 Z" fill="rgb(254,254,254)"/>
</g>
</svg>